<svg width="40" height="40" viewBox="0 0 40 40" xmlns="http://www.w3.org/2000/svg">
  <defs>
    <linearGradient id="logoGradient" x1="0%" y1="0%" x2="100%" y2="100%">
      <stop offset="0%" style="stop-color:#2563eb;stop-opacity:1" />
      <stop offset="100%" style="stop-color:#1d4ed8;stop-opacity:1" />
    </linearGradient>
  </defs>
  
  <!-- Background -->
  <rect width="40" height="40" rx="8" fill="url(#logoGradient)" />
  
  <!-- P Letter -->
  <path d="M 8 10 L 8 30 M 8 10 L 20 10 Q 25 10 25 15 Q 25 20 20 20 L 8 20" 
        stroke="#ffffff" stroke-width="2.5" fill="none" stroke-linecap="round" stroke-linejoin="round" />
  
  <!-- K Letter -->
  <path d="M 30 10 L 30 30 M 30 20 L 36 10 M 30 20 L 36 30" 
        stroke="#ffffff" stroke-width="2.5" fill="none" stroke-linecap="round" stroke-linejoin="round" />
  
  <!-- Neural Network Dots -->
  <circle cx="12" cy="32" r="1" fill="#60a5fa" />
  <circle cx="16" cy="34" r="1" fill="#60a5fa" />
  <circle cx="20" cy="32" r="1" fill="#60a5fa" />
  <circle cx="28" cy="32" r="1" fill="#60a5fa" />
  
  <!-- Connection Lines -->
  <line x1="12" y1="32" x2="16" y2="34" stroke="#60a5fa" stroke-width="0.5" opacity="0.7" />
  <line x1="16" y1="34" x2="20" y2="32" stroke="#60a5fa" stroke-width="0.5" opacity="0.7" />
  <line x1="20" y1="32" x2="28" y2="32" stroke="#60a5fa" stroke-width="0.5" opacity="0.7" />
</svg>
